# xmcd
#
# Track frame offsets: 
#        150
#        8698
#        20574
#        32187
#        43022
#
# Disc length: 676 seconds
#
# Revision: 0
# Processed by: cddbd v1.5.2PL0 Copyright (c) Steve Scherf et al.
# Submitted via: ExactAudioCopy v0.95b4
#
DISCID=3402a205
DTITLE=Reliéf - Reliéf
DYEAR=1900
DGENRE=Bluegrass
TTITLE0=Lord Will Answer Thee
TTITLE1=Leaves in the Wind
TTITLE2=One Glad And Joyful Day
TTITLE3=The Acts of Jesus
TTITLE4=Ain't Coming Home
EXTD=
EXTT0=
EXTT1=
EXTT2=
EXTT3=
EXTT4=
PLAYORDER=
